<svg width="98" height="16" viewBox="0 0 98 16" fill="none" xmlns="http://www.w3.org/2000/svg">
<path d="M9.90909 5.76089C9.80966 5.41525 9.66998 5.10985 9.49006 4.8447C9.31013 4.57482 9.08996 4.34754 8.82955 4.16288C8.57386 3.97349 8.2803 3.82908 7.94886 3.72964C7.62216 3.63021 7.25994 3.5805 6.86222 3.5805C6.11884 3.5805 5.46544 3.76516 4.90199 4.13447C4.34328 4.50379 3.90767 5.0412 3.59517 5.74669C3.28267 6.44745 3.12642 7.30446 3.12642 8.31771C3.12642 9.33097 3.2803 10.1927 3.58807 10.9029C3.89583 11.6132 4.33144 12.1553 4.89489 12.5294C5.45833 12.8987 6.12358 13.0833 6.89062 13.0833C7.58665 13.0833 8.18087 12.9602 8.6733 12.714C9.17046 12.4631 9.54924 12.1103 9.80966 11.6558C10.0748 11.2012 10.2074 10.6638 10.2074 10.0436L10.8324 10.1359H7.08239V7.82055H13.169V9.65294C13.169 10.9313 12.8991 12.0298 12.3594 12.9484C11.8196 13.8622 11.0762 14.5677 10.1293 15.0649C9.18229 15.5573 8.09801 15.8035 6.87642 15.8035C5.51278 15.8035 4.31487 15.5028 3.28267 14.9015C2.25047 14.2955 1.44555 13.4361 0.867898 12.3234C0.294981 11.206 0.00852273 9.88021 0.00852273 8.34612C0.00852273 7.16714 0.178977 6.11601 0.519886 5.19271C0.86553 4.26468 1.34848 3.4787 1.96875 2.83476C2.58902 2.19082 3.31108 1.70076 4.13494 1.36459C4.95881 1.02841 5.85133 0.860326 6.8125 0.860326C7.63636 0.860326 8.40341 0.981065 9.11364 1.22254C9.82386 1.45928 10.4536 1.79546 11.0028 2.23106C11.5568 2.66667 12.009 3.18514 12.3594 3.78646C12.7098 4.38305 12.9347 5.0412 13.0341 5.76089H9.90909ZM20.3938 15.8177C19.2717 15.8177 18.3058 15.5904 17.4961 15.1359C16.6912 14.6766 16.0709 14.0279 15.6353 13.1899C15.1997 12.3471 14.9819 11.3504 14.9819 10.1998C14.9819 9.07766 15.1997 8.09281 15.6353 7.24527C16.0709 6.39773 16.6841 5.73722 17.4748 5.26373C18.2702 4.79025 19.203 4.55351 20.2731 4.55351C20.9928 4.55351 21.6628 4.66951 22.283 4.90152C22.908 5.12879 23.4525 5.47207 23.9165 5.93135C24.3853 6.39063 24.7499 6.96828 25.0103 7.6643C25.2707 8.35559 25.4009 9.16525 25.4009 10.0933V10.9242H16.1893V9.04925H22.5529C22.5529 8.61364 22.4582 8.22775 22.2688 7.89158C22.0794 7.5554 21.8166 7.29262 21.4805 7.10322C21.149 6.9091 20.7631 6.81203 20.3228 6.81203C19.8635 6.81203 19.4563 6.91856 19.1012 7.13163C18.7508 7.33997 18.4762 7.62169 18.2773 7.9768C18.0785 8.32718 17.9767 8.71781 17.9719 9.14868V10.9313C17.9719 11.4711 18.0714 11.9375 18.2702 12.3305C18.4738 12.7235 18.7603 13.0265 19.1296 13.2396C19.4989 13.4527 19.9369 13.5592 20.4435 13.5592C20.7797 13.5592 21.0875 13.5118 21.3668 13.4171C21.6462 13.3224 21.8853 13.1804 22.0842 12.991C22.283 12.8016 22.4345 12.5696 22.5387 12.295L25.337 12.4796C25.195 13.152 24.9038 13.7391 24.4634 14.241C24.0278 14.7382 23.4644 15.1264 22.7731 15.4058C22.0865 15.6804 21.2934 15.8177 20.3938 15.8177ZM32.3469 15.8177C31.2248 15.8177 30.2589 15.5904 29.4492 15.1359C28.6443 14.6766 28.024 14.0279 27.5884 13.1899C27.1528 12.3471 26.935 11.3504 26.935 10.1998C26.935 9.07766 27.1528 8.09281 27.5884 7.24527C28.024 6.39773 28.6372 5.73722 29.4279 5.26373C30.2234 4.79025 31.1561 4.55351 32.2262 4.55351C32.9459 4.55351 33.6159 4.66951 34.2362 4.90152C34.8612 5.12879 35.4057 5.47207 35.8697 5.93135C36.3384 6.39063 36.703 6.96828 36.9634 7.6643C37.2238 8.35559 37.354 9.16525 37.354 10.0933V10.9242H28.1424V9.04925H34.506C34.506 8.61364 34.4113 8.22775 34.2219 7.89158C34.0326 7.5554 33.7698 7.29262 33.4336 7.10322C33.1022 6.9091 32.7163 6.81203 32.2759 6.81203C31.8166 6.81203 31.4094 6.91856 31.0543 7.13163C30.704 7.33997 30.4293 7.62169 30.2305 7.9768C30.0316 8.32718 29.9298 8.71781 29.9251 9.14868V10.9313C29.9251 11.4711 30.0245 11.9375 30.2234 12.3305C30.427 12.7235 30.7134 13.0265 31.0827 13.2396C31.4521 13.4527 31.89 13.5592 32.3967 13.5592C32.7328 13.5592 33.0406 13.5118 33.32 13.4171C33.5993 13.3224 33.8384 13.1804 34.0373 12.991C34.2362 12.8016 34.3877 12.5696 34.4918 12.295L37.2901 12.4796C37.1481 13.152 36.8569 13.7391 36.4165 14.241C35.9809 14.7382 35.4175 15.1264 34.7262 15.4058C34.0397 15.6804 33.2466 15.8177 32.3469 15.8177ZM42.07 12.4654L42.0771 8.83618H42.5174L46.0117 4.69555H49.4847L44.7901 10.1785H44.0728L42.07 12.4654ZM39.3285 15.6046V1.05919H42.354V15.6046H39.3285ZM46.1467 15.6046L42.9364 10.8532L44.9535 8.71544L49.6907 15.6046H46.1467Z" fill="#1E1E1E"/>
<path d="M54.1651 15.6046L50.1879 1.05919H51.9776L55.0174 12.9058H55.1594L58.256 1.05919H60.2447L63.3413 12.9058H63.4833L66.5231 1.05919H68.3129L64.3356 15.6046H62.5174L59.3072 4.01373H59.1935L55.9833 15.6046H54.1651ZM73.6964 15.8319C72.7115 15.8319 71.8474 15.5975 71.104 15.1288C70.3654 14.66 69.7878 14.0043 69.3711 13.1615C68.9592 12.3187 68.7532 11.3338 68.7532 10.2069C68.7532 9.07055 68.9592 8.0786 69.3711 7.23106C69.7878 6.38353 70.3654 5.72538 71.104 5.25663C71.8474 4.78788 72.7115 4.55351 73.6964 4.55351C74.6812 4.55351 75.543 4.78788 76.2816 5.25663C77.025 5.72538 77.6026 6.38353 78.0146 7.23106C78.4312 8.0786 78.6396 9.07055 78.6396 10.2069C78.6396 11.3338 78.4312 12.3187 78.0146 13.1615C77.6026 14.0043 77.025 14.66 76.2816 15.1288C75.543 15.5975 74.6812 15.8319 73.6964 15.8319ZM73.6964 14.3262C74.4445 14.3262 75.06 14.1345 75.543 13.751C76.0259 13.3674 76.3834 12.8632 76.6154 12.2382C76.8474 11.6132 76.9634 10.9361 76.9634 10.2069C76.9634 9.47775 76.8474 8.7983 76.6154 8.16856C76.3834 7.53883 76.0259 7.02983 75.543 6.64158C75.06 6.25332 74.4445 6.05919 73.6964 6.05919C72.9483 6.05919 72.3327 6.25332 71.8498 6.64158C71.3668 7.02983 71.0094 7.53883 70.7773 8.16856C70.5453 8.7983 70.4293 9.47775 70.4293 10.2069C70.4293 10.9361 70.5453 11.6132 70.7773 12.2382C71.0094 12.8632 71.3668 13.3674 71.8498 13.751C72.3327 14.1345 72.9483 14.3262 73.6964 14.3262ZM81.1982 15.6046V4.69555H82.8175V6.34328H82.9311C83.13 5.80351 83.4898 5.36553 84.0107 5.02936C84.5315 4.69319 85.1186 4.5251 85.772 4.5251C85.8951 4.5251 86.049 4.52747 86.2337 4.5322C86.4183 4.53694 86.558 4.54404 86.6527 4.55351V6.25805C86.5959 6.24385 86.4657 6.22254 86.2621 6.19413C86.0632 6.16099 85.8525 6.14442 85.63 6.14442C85.0997 6.14442 84.6262 6.25569 84.2095 6.47822C83.7976 6.69603 83.4709 6.99906 83.2294 7.38731C82.9927 7.77084 82.8743 8.20881 82.8743 8.70124V15.6046H81.1982ZM92.4268 15.8319C91.5178 15.8319 90.7152 15.6023 90.0192 15.143C89.3232 14.679 88.7786 14.0256 88.3857 13.1828C87.9927 12.3352 87.7962 11.3338 87.7962 10.1785C87.7962 9.03267 87.9927 8.03836 88.3857 7.19555C88.7786 6.35275 89.3255 5.70171 90.0263 5.24243C90.727 4.78315 91.5367 4.55351 92.4553 4.55351C93.1655 4.55351 93.7266 4.67188 94.1385 4.90862C94.5552 5.14063 94.8724 5.40578 95.0902 5.70408C95.3127 5.99764 95.4856 6.23911 95.6087 6.42851H95.7507V1.05919H97.4268V15.6046H95.8075V13.9285H95.6087C95.4856 14.1274 95.3104 14.3783 95.0831 14.6813C94.8558 14.9796 94.5315 15.2472 94.1101 15.4839C93.6887 15.7159 93.1276 15.8319 92.4268 15.8319ZM92.6541 14.3262C93.3265 14.3262 93.8946 14.151 94.3587 13.8007C94.8227 13.4456 95.1754 12.9555 95.4169 12.3305C95.6584 11.7008 95.7791 10.974 95.7791 10.1501C95.7791 9.33571 95.6607 8.62311 95.424 8.01231C95.1873 7.39678 94.8369 6.91857 94.3729 6.57766C93.9089 6.23201 93.3359 6.05919 92.6541 6.05919C91.9439 6.05919 91.352 6.24148 90.8786 6.60606C90.4098 6.96591 90.0571 7.45597 89.8203 8.07624C89.5883 8.69177 89.4723 9.38305 89.4723 10.1501C89.4723 10.9266 89.5907 11.6321 89.8274 12.2666C90.0689 12.8963 90.424 13.3982 90.8928 13.7723C91.3662 14.1416 91.9534 14.3262 92.6541 14.3262Z" fill="#0A99FE"/>
</svg>
