<svg width="78" height="68" viewBox="0 0 78 68" fill="none" xmlns="http://www.w3.org/2000/svg">
<path d="M74.9358 51.9788C73.2534 51.9788 71.8896 53.3477 71.8896 55.0364C71.8896 58.4083 69.1566 61.1516 65.7973 61.1516H42.5451L35.5412 52.0314L57.6483 23.8072L72.5846 41.6927C72.6143 41.7288 72.6448 41.7642 72.676 41.7988L72.6792 41.8025C72.6828 41.8066 72.6866 41.8107 72.6905 41.8148C72.9678 42.1189 73.2937 42.3545 73.6463 42.5195C74.0085 42.6895 74.4097 42.7901 74.8325 42.8041C74.8403 42.8044 74.8481 42.8047 74.8558 42.8049C74.8572 42.8049 74.8586 42.8047 74.8598 42.8049C75.0774 42.8104 75.2958 42.7928 75.5111 42.7515L75.5191 42.75C75.5287 42.7482 75.538 42.7463 75.5478 42.7443C75.5514 42.7436 75.5554 42.7427 75.5593 42.7419C75.5676 42.7402 75.5758 42.7385 75.584 42.7367C75.5886 42.7356 75.5932 42.7347 75.5977 42.7336C75.6053 42.732 75.6126 42.7301 75.6201 42.7284C75.6254 42.7272 75.6308 42.7262 75.6359 42.7248C75.6426 42.7232 75.6495 42.7216 75.6561 42.72C75.6618 42.7187 75.6675 42.7171 75.6733 42.7158C75.6795 42.7142 75.6859 42.7125 75.6922 42.711C75.6979 42.7095 75.7036 42.708 75.7094 42.7064C75.7158 42.7047 75.722 42.7031 75.7284 42.7014C75.7342 42.6999 75.74 42.6982 75.7458 42.6966L75.7637 42.6918C75.77 42.6899 75.7762 42.6881 75.7823 42.6864C75.7884 42.6847 75.7943 42.6827 75.8003 42.6811C75.8052 42.6797 75.81 42.6783 75.8151 42.6768C75.8225 42.6745 75.8301 42.6722 75.8375 42.6699C75.8416 42.6687 75.8457 42.6671 75.8496 42.6659C75.8573 42.6636 75.8647 42.6612 75.8723 42.6587C75.8769 42.6572 75.8815 42.6558 75.886 42.6543C75.8935 42.6519 75.9011 42.6493 75.9086 42.6468C75.9121 42.6456 75.9156 42.6444 75.9191 42.6433C75.9275 42.6404 75.936 42.6373 75.9444 42.6346C75.9476 42.6335 75.9508 42.6323 75.954 42.6311C75.9627 42.6282 75.9712 42.6249 75.9797 42.6217C75.9824 42.6207 75.9852 42.6199 75.9879 42.6188C75.9974 42.6153 76.0067 42.6118 76.016 42.6083L76.0207 42.6064C76.031 42.6025 76.0414 42.5985 76.0518 42.5944C76.0524 42.5942 76.053 42.5938 76.0536 42.5935C76.0647 42.589 76.0758 42.5847 76.0869 42.58C76.2223 42.5247 76.3548 42.4588 76.4834 42.3825C76.4852 42.3814 76.4871 42.3803 76.4889 42.3793C76.4976 42.3741 76.5062 42.3689 76.5149 42.3635C76.6791 42.2635 76.8331 42.1483 76.975 42.0195C76.9776 42.0174 76.9801 42.0151 76.9827 42.0128C76.9849 42.0107 76.9872 42.0085 76.9895 42.0065C77.2949 41.7269 77.5314 41.3978 77.6967 41.0416C77.8665 40.6767 77.9667 40.2727 77.9801 39.8465C77.9803 39.8409 77.9804 39.8357 77.9806 39.8302C77.9806 39.8266 77.9807 39.8231 77.9807 39.8198C77.9809 39.8094 77.9812 39.7987 77.9813 39.7883V39.7875C77.9815 39.7715 77.9815 39.7554 77.9815 39.7392V12.2303C77.9815 5.48652 72.5155 0 65.7968 0H12.1847C5.46605 0 0 5.48637 0 12.2303V55.0364C0 61.7802 5.46605 67.2667 12.1847 67.2667H41.028C41.0351 67.2667 41.0423 67.2669 41.0494 67.2669C41.059 67.2669 41.0685 67.2669 41.0781 67.2667H65.7973C72.5159 67.2667 77.982 61.7802 77.982 55.0364C77.982 53.3476 76.6182 51.9788 74.9358 51.9788ZM12.1847 61.1516C8.82536 61.1516 6.09234 58.4083 6.09234 55.0364V12.2303C6.09234 8.85842 8.82536 6.11516 12.1847 6.11516H65.7973C69.1566 6.11516 71.8896 8.85842 71.8896 12.2303V31.3413L59.907 16.9928C59.3176 16.2868 58.4444 15.8858 57.5249 15.8997C56.6074 15.9141 55.7451 16.3431 55.178 17.0671L31.7045 47.0354L23.7358 36.6587C23.1591 35.9076 22.2678 35.4678 21.3232 35.4678H21.3217C20.3764 35.4682 19.485 35.9091 18.9086 36.6611L12.2048 45.4086C11.1791 46.747 11.4285 48.6667 12.7619 49.6964C14.0957 50.726 16.0081 50.4757 17.0337 49.1373L21.3256 43.5369L34.8531 61.1516H12.1847Z" fill="#504E4E"/>
</svg>
